<svg xmlns="http://www.w3.org/2000/svg" viewBox="0 0 64 64">
  <defs>
    <linearGradient id="g" x1="0" y1="0" x2="1" y2="1">
      <stop offset="0" stop-color="#38bdf8"/>
      <stop offset="1" stop-color="#0369a1"/>
    </linearGradient>
  </defs>
  <rect x="4" y="4" width="56" height="56" rx="14" fill="url(#g)"/>
  <g fill="none" stroke="#fff" stroke-width="4" stroke-linecap="round">
    <path d="M12 38c4-4 8-4 12 0s8 4 12 0 8-4 12 0"/>
    <path d="M12 48c4-4 8-4 12 0s8 4 12 0 8-4 12 0" opacity="0.7"/>
  </g>
  <circle cx="44" cy="20" r="7" fill="#fde047"/>
  <g stroke="#fde047" stroke-width="2.6" stroke-linecap="round">
    <path d="M44 8v3M44 29v3M32 20h3M53 20h3M35.5 11.5l2.1 2.1M50.4 26.4l2.1 2.1M52.5 11.5l-2.1 2.1M37.6 26.4l-2.1 2.1"/>
  </g>
</svg>
